inDegrees=yes
nColumns=22
nRows=29
DataType=double
version=3
OpenSimVersion=4.5
endheader
time	pelvis_tilt	pelvis_list	pelvis_rotation	pelvis_tx	pelvis_ty	pelvis_tz	hip_flexion_r	hip_adduction_r	hip_rotation_r	knee_angle_r	ankle_angle_r	mtp_angle_r	hip_flexion_l	hip_adduction_l	hip_rotation_l	knee_angle_l	ankle_angle_l	mtp_angle_l	lumbar_extension	lumbar_bending	lumbar_rotation
0	-0.9889428426788677	1.603064596862925	5.298278850788728	0	0.8768651707307542	-0.07954125877948397	31.63787053044828	-5.548962590482817	-19.7017867627056	-18.25698782304006	4.37897414389274	0	-12.61463315287686	3.341457148405239	-12.14503935849445	-10.83002381391779	16.03490123330644	0	-7.303887373514517	-0.867767695676568	-12.24256344533475
0.0128030520949917	-1.01798177717321	1.412756982599133	5.744466582850573	0.01481914548004504	0.8757714977020381	-0.07847832375890128	31.17650678431876	-5.250438514564107	-18.91384435308569	-18.90966067411866	3.212015018809868	0	-13.16451985691493	2.737227839968798	-11.8370707198371	-11.48466309351832	15.35666789453409	0	-7.110858842287259	-0.5151050811742504	-12.32293369461932
0.02560610418998341	-1.031607396160817	1.290264775874812	6.205091945994435	0.03036564285173837	0.874984767401049	-0.07713352526645967	30.43610045390344	-4.926228357349699	-18.19563022326802	-19.36513139281114	2.874504379318342	0	-13.7187061359341	2.153469472394447	-11.51350069469682	-12.19564964478104	14.40626280946757	0	-6.839684300334077	-0.2851503215897123	-12.40751939824069
0.03840915628497512	-1.031064590580125	1.088966158967646	6.615866941024613	0.04607071835501408	0.8745164843110541	-0.07552981529137587	29.80313053720547	-4.520728450581789	-17.53279221053328	-20.05399642272994	2.612370521487351	0	-14.17051801925637	1.454414666089113	-11.24793250242975	-13.09247436403268	13.34277735890487	0	-6.571075803822535	0.0217016993773346	-12.45182828753512
0.05121220837996682	-1.013175314677657	0.7192207795505611	6.939249921341236	0.06167098767718271	0.8743771442957956	-0.07368403860163102	29.38211606918583	-3.952462834067519	-16.86541570600419	-20.95651170400073	1.757825277302002	0	-14.47384553369487	0.5590987771295668	-11.04456316428628	-14.23663319347832	12.24622161482072	0	-6.341716328671626	0.5293966613148986	-12.43027539481547
0.06401526047495852	-0.9665793019264114	0.2862626156446383	7.187139377503012	0.07715874471120676	0.8745531135420604	-0.07165486154593735	29.13708384924283	-3.329205342375642	-16.13906277793884	-22.22541492124712	1.137299810353629	0	-14.62008959575445	-0.4282198884447785	-10.83098412089885	-15.68134866088561	11.06511381498805	0	-6.1727146893149	1.126311846179972	-12.36337251113986
0.07681831256995024	-0.8925882662130539	-0.1496244903152152	7.376776578144453	0.09256594857270362	0.8750242908433282	-0.06952232924614614	28.95693281955747	-2.701707995890294	-15.38699018746106	-23.78163139242945	1.217552126551263	0	-14.54210960412758	-1.455499888269371	-10.54390104745064	-17.56167544810743	9.764725353344106	0	-6.055349071190238	1.750501269250029	-12.25351902807025
0.08962136466494193	-0.8053768923114273	-0.5883350424022572	7.509607137914634	0.1078722658486913	0.8758152219908574	-0.06732761552421027	28.65278089619991	-2.052120775762309	-14.75100596014587	-25.16897177094353	1.550729184803531	0	-14.12569924936173	-2.528295446704529	-10.15140005125028	-20.05438487373259	8.31821463986264	0	-5.966701166048107	2.40035523389783	-12.08526792653224
0.1024244167599336	-0.7171164279253698	-0.9914813672488156	7.592968280108437	0.1230552485256808	0.8769079189388121	-0.06501447526361701	28.14156180580388	-1.402203251908217	-14.33069737825748	-26.27334410441192	2.375491000962583	0	-13.27484944322612	-3.612755326380827	-9.608017372836077	-23.30272455979151	6.697376109759665	0	-5.887886868027211	3.007050098537119	-11.86752808318567
0.1152274688549253	-0.6426665176643851	-1.310327133124651	7.657651802692943	0.138046114156674	0.8782771646501586	-0.06259140471162541	27.36439193664079	-0.8022301180010154	-14.15354772279787	-26.8573833379041	3.170483320600254	0	-11.92827368256666	-4.648548770051547	-8.898573529260837	-27.38338658520827	5.143699419332433	0	-5.802903731371724	3.493372174929714	-11.62144046132906
0.128030520949917	-0.5934494883953241	-1.608267052557802	7.719357848496417	0.1526713358533949	0.879774689926761	-0.06009954482145772	26.4563615598567	-0.2078768255667578	-14.14627796921082	-27.13270297492564	4.06958316791626	0	-10.08412971769364	-5.668581813954361	-8.049829482439415	-32.26824330580113	4.064200673817019	0	-5.708038221553482	3.925837930026942	-11.34146180745955
0.1408335730449087	-0.5715481024299066	-1.896271978943696	7.79138112124853	0.1668591203036032	0.8812824307790356	-0.05756890196614233	25.48181665258839	0.374514171805913	-14.28466325489648	-27.15879827831797	4.858601839537489	0	-7.859330791857905	-6.643866329091213	-7.063696897914354	-37.62972190088712	3.257474350840897	0	-5.605765546963093	4.306518226942047	-11.02437944795551
0.1536366251399005	-0.5737284895459258	-2.183254336483997	7.876326643121658	0.1806341111221291	0.8827625783293128	-0.05503185677249094	24.48877956279617	0.9473505692605174	-14.53221721001704	-27.03798287437568	5.582586681154056	0	-5.42995850459908	-7.545130056225938	-5.965699645019821	-42.99882841139284	2.28091080930073	0	-5.492983623848154	4.642212455802552	-10.66459193316609
0.1664396772348921	-0.5892550615009304	-2.473289168232883	7.968900936190039	0.1940635649751425	0.8842450383319461	-0.0525043082989354	23.48644455638547	1.519958661428583	-14.84772492194918	-26.79776506444324	6.166476281430752	0	-2.922155207099782	-8.376144215962542	-4.85894542468241	-48.09279775467336	0.8679340424462333	0	-5.368654943670175	4.939159824179489	-10.25973611687479
0.1792427293298839	-0.6053396651957225	-2.78041772037576	8.047760668654202	0.2071856446029792	0.8857622801411836	-0.05000827360002444	22.48836693469686	2.10996498468759	-15.20765391451862	-26.4874554222406	6.628436232897038	0	-0.4159184743886466	-9.167290918708479	-3.863094305104222	-52.73001422744625	-1.14593011752311	0	-5.240932804896327	5.225588480690216	-9.7919534072524
0.1920457814248756	-0.6098980245635062	-3.056897011998658	8.079361954070716	0.2200595741309944	0.8873823866758538	-0.04757989467739528	21.46368736881607	2.683830762353667	-15.55636678321263	-26.09645003505718	6.991354206937065	0	1.966906221496618	-9.854851245155061	-3.066228009552485	-56.6320711879409	-3.522047202459083	0	-5.129720296913332	5.465451360081749	-9.241509276091714
0.2048488335198673	-0.5931744578402598	-3.248384780498883	8.037986072018397	0.2327245065295271	0.8891464242111388	-0.04526253020211786	20.37224749744702	3.201910494569161	-15.81639998916331	-25.60608329896363	7.328939879053506	0	4.125908611369216	-10.35670997495536	-2.50930472581127	-59.6893343519795	-4.777782347139481	0	-5.056078203728134	5.614066327579277	-8.595439734837482
0.217651885614859	-0.5498913613521492	-3.347565074224473	7.926673759995615	0.2451302827146258	0.8910572702079443	-0.04305360922997102	19.2022927386323	3.659746761172118	-15.94818771217612	-25.00427331725239	7.633881473911696	0	6.112060314178271	-10.68916971615867	-2.213880927112072	-62.01300001912775	-4.680491444313425	0	-5.037771804647552	5.667244288639615	-7.859987811625416
0.2304549377098507	-0.4793826288469759	-3.350725877693162	7.756250740530495	0.2572054402520271	0.893082302470341	-0.04092680033877154	17.95748516194222	4.046761206919991	-15.9591226271039	-24.2974653416805	7.921868714064489	0	8.02965047244663	-10.87133375790844	-2.146864839571082	-63.81709582350838	-3.787889773833635	0	-5.087244238203311	5.615765096978675	-7.046531726933013
0.2432579898048424	-0.3840465090017299	-3.259424396431975	7.539376250693769	0.2688855300871091	0.8951665494825897	-0.03885886628041391	16.6571662108176	4.352343043654495	-15.87020816106887	-23.51245872215248	8.207804365181323	0	9.96189411741083	-10.91604528883037	-2.255470446543031	-65.26198070268296	-2.587928535134921	0	-5.211506071335202	5.4551189036979	-6.174189172604462
0.2560610418998341	-0.2672790569472641	-3.089833514108606	7.28837863018024	0.2801468301338433	0.8972383673520025	-0.03683655860084913	15.32180395291176	4.579953540529243	-15.71877031402989	-22.67939504262132	8.526433573251913	0	11.94790745874235	-10.84977566772789	-2.495185337587733	-66.44243070870304	-1.207381714669982	0	-5.408606450299777	5.198833658585778	-5.265031136608186
0.2688640939948258	-0.1332494705199621	-2.862181686803274	7.014525199252319	0.29099954401727	0.8992330621349377	-0.03485177777318561	13.9702882029258	4.739761113290458	-15.53998446761453	-21.81740885057386	8.862627070418863	0	13.99019980556277	-10.70260556382794	-2.832721997716002	-67.37374789817251	0.2958030293210739	0	-5.670742027106398	4.866042891326487	-4.343004333712072
0.2816671460898175	0.01325164445168218	-2.587445282426769	6.727412359835354	0.301492340092029	0.9011090521283158	-0.03291035865099061	12.61441522812681	4.834324048551151	-15.37052511479965	-20.94345482388889	9.231763824691303	0	16.04969282377223	-10.48849261949889	-3.244294605941529	-67.97560614797611	1.879425579593866	0	-5.985275401751596	4.467816147141146	-3.430503624433941
0.2944701981848092	0.1667102206033085	-2.29232675411642	6.434980307692518	0.3116881003787771	0.9028341465955161	-0.03103874298438532	11.25808592987998	4.887670270889041	-15.2306804134356	-20.05066895342593	9.616121567693668	0	18.08160313169047	-10.2320561352284	-3.702033183540268	-68.15659108048322	3.434114696579106	0	-6.334965164612543	4.038156950656417	-2.541529446436704
0.307273250279801	0.3197816916015999	-1.99160824660835	6.139672195958604	0.3216410204444375	0.9043800320425314	-0.02926539371381455	9.919165647288287	4.911047489985304	-15.11882806103627	-19.15841367461587	9.997640460696367	0	20.04246293939259	-9.939771775394869	-4.179956643183101	-67.85769870346208	4.897323745846325	0	-6.703437683626204	3.59882488635343	-1.685936516428514
0.3200763023747926	0.4658357578252913	-1.689651526187613	5.839775511136523	0.3314213646639288	0.9057317095113311	-0.02761217282960056	8.60885863983899	4.906927446215295	-15.03092782795934	-18.2837942124036	10.3865822363038	0	21.87333681790735	-9.608389170566957	-4.667669742990125	-67.00815932265472	6.242940049083158	0	-7.074004258248166	3.159408599269577	-0.8723820412841768
0.3328793544697843	0.6000120430591054	-1.394446302553513	5.52807939284919	0.3411324674858932	0.9069023166063379	-0.02608847443374044	7.32471661481231	4.886319183116584	-14.94873725237027	-17.41897538252513	10.75593743544344	0	23.47840098340888	-9.24344833327415	-5.177178745814492	-65.45768186998535	7.426877869673725	0	-7.426844778683954	2.733565781406488	-0.1092646396572846
0.3456824065647761	0.7199770635645987	-1.119095890836168	5.19618127026341	0.3508413567472917	0.9078867357609209	-0.02469870053152892	6.067011091927339	4.863717451589431	-14.8599553221623	-16.56294926365927	11.09133200561459	0	24.81090813644915	-8.859540110924277	-5.71991832415345	-63.20421636206971	8.394173666691714	0	-7.749199438853559	2.339859884984379	0.6018689321237216
0.3584854586597677	0.8245465438651662	-0.8727618067722254	4.835075742898137	0.3605982126614984	0.9086817410787903	-0.02346352852039038	4.837524365400456	4.846823893496924	-14.75278858950174	-15.71949664903767	11.37875825123873	0	25.84156229022242	-8.456273990261929	-6.303665136003929	-60.27726003109395	9.038553119907778	0	-8.032052909235766	1.995056417821555	1.264605409212896
